<svg width="136" height="136" viewBox="0 0 136 136" fill="none" xmlns="http://www.w3.org/2000/svg">
<path d="M96.6149 6C100.441 6.00007 103.544 9.10221 103.544 12.9287C103.544 20.4239 109.62 26.5 117.115 26.5C120.821 26.5 123.832 29.4 124.046 33.0371L124.057 33.3916L124.11 38.5146C124.229 50.8444 124.089 65.6865 118.905 80.6093C112.901 97.8912 100.276 114.987 74.526 129.118C71.1468 130.972 67.0143 131.017 63.5954 129.233C37.3805 115.554 24.2735 98.3921 17.8825 81.1504C11.5639 64.104 11.9541 47.2862 12.0338 34.8252C12.058 31.0503 15.1221 28.0001 18.901 28C26.1595 28 32.0444 22.1159 32.0446 14.8574V13.1426C32.0447 9.19781 35.2424 6 39.1872 6H96.6149ZM40.0446 14.8574C40.0445 26.1568 31.1799 35.3851 20.026 35.9697C19.9401 48.4359 19.8175 63.3504 25.3844 78.3691C31.0427 93.6341 42.7228 109.318 67.2956 122.141C68.3416 122.686 69.6415 122.673 70.6774 122.104C94.8303 108.849 106.045 93.2495 111.348 77.9843C116.597 62.8768 116.195 47.8088 116.067 34.4736C104.995 33.9441 96.1114 25.0687 95.57 14H40.0446V14.8574ZM68.5446 27.5C77.2395 27.5 84.2632 34.5946 84.1764 43.289L84.0846 52.5H84.9411C89.4395 52.5002 93.0534 56.2081 92.9381 60.7051L92.5426 76.1093C92.2087 89.1235 81.5631 99.4999 68.5446 99.5C55.2604 99.5 44.3946 88.9162 44.0456 75.6367L43.654 60.7099C43.5358 56.211 47.1505 52.5 51.651 52.5H52.7233L52.6315 43.5771C52.5408 34.7249 59.6918 27.5 68.5446 27.5ZM52.0426 75.4258C52.2776 84.3705 59.5968 91.5 68.5446 91.5C77.2247 91.4999 84.3228 84.5815 84.5456 75.9043L84.9411 60.5H51.651L52.0426 75.4258ZM68.5446 68.5C70.7537 68.5 72.5446 70.2908 72.5446 72.5V80.5C72.5446 82.7091 70.7537 84.4999 68.5446 84.5C66.3354 84.5 64.5446 82.7091 64.5446 80.5V72.5C64.5446 70.2908 66.3354 68.5 68.5446 68.5ZM68.5446 35.5C64.1422 35.5 60.5864 39.0929 60.6315 43.4951L60.6354 43.959L60.7233 52.5H76.0846L76.1774 43.209C76.2196 38.9639 72.7899 35.5 68.5446 35.5Z" fill="#E6E6E6"/>
</svg>
