<svg width="136" height="136" viewBox="0 0 136 136" fill="none" xmlns="http://www.w3.org/2000/svg">
<path d="M81.3843 16.1633L93.2074 48.2767L43.5527 66.558L31.7296 34.4446L81.3843 16.1633ZM48.2961 56.2867L82.9361 43.5333L76.6409 26.4346L42.0009 39.188L48.2961 56.2867Z" fill="#E6E6E6"/>
<path d="M31.3003 70.0514L44.3512 65.2465L33.1876 34.9246L20.1368 39.7295L31.3003 70.0514ZM53.2405 66.2362L53.3071 66.4312C53.9164 68.3863 52.9439 70.4921 51.0605 71.2961L50.8688 71.3718L30.3106 78.9407L30.1156 79.0073C28.0953 79.6369 25.9144 78.5773 25.175 76.569L11.2474 38.7398C10.508 36.7315 11.4812 34.5107 13.4274 33.6799L13.6191 33.6041L34.1773 26.0352L34.3723 25.9686C36.3926 25.3391 38.5736 26.3987 39.313 28.4069L53.2405 66.2362Z" fill="#E6E6E6"/>
<path d="M91.749 47.7961L104.8 42.9912L93.6363 12.6693L80.5854 17.4742L91.749 47.7961ZM113.689 43.9809L113.756 44.1759C114.365 46.131 113.393 48.2368 111.509 49.0408L111.317 49.1165L90.7593 56.6854L90.5643 56.752C88.544 57.3816 86.363 56.322 85.6236 54.3137L71.6961 16.4845C70.9567 14.4762 71.9299 12.2554 73.8761 11.4246L74.0678 11.3488L94.6259 3.77992L94.821 3.71331C96.8413 3.08377 99.0222 4.14336 99.7616 6.15162L113.689 43.9809Z" fill="#E6E6E6"/>
<path d="M89.5277 124.136L96.1021 121.716L72.2213 56.8522L65.6469 59.2727L89.5277 124.136ZM104.991 122.706L105.057 122.901C105.667 124.856 104.694 126.962 102.811 127.766L102.62 127.841L88.538 133.026L88.3429 133.092C86.3227 133.722 84.1417 132.662 83.4023 130.654L56.7576 58.283C56.0182 56.2748 56.9914 54.0539 58.9376 53.2231L59.1293 53.1473L73.2111 47.9629L73.4052 47.8966C75.4257 47.2666 77.6073 48.3261 78.3467 50.3345L104.991 122.706Z" fill="#E6E6E6"/>
</svg>
