<svg width="136" height="136" viewBox="0 0 136 136" fill="none" xmlns="http://www.w3.org/2000/svg">
<path d="M119.5 122.5C119.5 126.918 115.918 130.5 111.5 130.5H24.5C20.0817 130.5 16.5 126.918 16.5 122.5V14C16.5 9.58172 20.0817 6 24.5 6H93.7529L119.5 33.9375V122.5ZM106.374 31.5L96 20.2422V31.5H106.374ZM24.5 122.5H111.5V39.5H96C91.5817 39.5 88 35.9183 88 31.5V14H24.5V122.5Z" fill="#E6E6E6"/>
<path d="M96 101.5C98.2091 101.5 100 103.291 100 105.5C100 107.709 98.2091 109.5 96 109.5H40C37.7909 109.5 36 107.709 36 105.5C36 103.291 37.7909 101.5 40 101.5H96ZM96 83.5059C98.209 83.5059 99.9998 85.2969 100 87.5059C100 89.715 98.2091 91.5059 96 91.5059H40C37.7909 91.5059 36 89.715 36 87.5059C36.0002 85.2969 37.791 83.5059 40 83.5059H96ZM96 65.9951C98.2091 65.9951 99.9999 67.7861 100 69.9951C100 72.2043 98.2091 73.9951 96 73.9951H40C37.7909 73.9951 36 72.2043 36 69.9951C36.0001 67.7861 37.7909 65.9951 40 65.9951H96ZM96 47.9844C98.2091 47.9844 100 49.7752 100 51.9844C99.9998 54.1933 98.209 55.9844 96 55.9844H40C37.791 55.9844 36.0002 54.1933 36 51.9844C36 49.7752 37.7909 47.9844 40 47.9844H96ZM77.0703 31C79.2795 31 81.0703 32.7909 81.0703 35C81.0703 37.2091 79.2795 39 77.0703 39H40C37.7909 39 36 37.2091 36 35C36 32.7909 37.7909 31 40 31H77.0703Z" fill="#E6E6E6"/>
</svg>
